<?xml version="1.0" encoding="utf-8"?>
<svg version="1.1" xmlns:xlink="http://www.w3.org/1999/xlink" width="166px" height="34px" xmlns="http://www.w3.org/2000/svg">
  <g transform="matrix(1 0 0 1 -85 -202 )">
    <path d="M 98.3081630832201 202.5  C 98.3081630832201 202.5  95.4627540054506 202.791397315193  95.4627540054506 202.791397315193  C 95.4627540054506 202.791397315193  85.5342372317313 219  85.5342372317313 219  C 85.5342372317313 219  95.4627540054506 235.208602684807  95.4627540054506 235.208602684807  C 95.4627540054506 235.208602684807  98.3081630832202 235.5  98.3081630832202 235.5  C 98.3081630832202 235.5  250.5 235.5  250.5 235.5  C 250.5 235.5  250.5 202.5  250.5 202.5  C 250.5 202.5  98.3081630832201 202.5  98.3081630832201 202.5  Z " fill-rule="nonzero" fill="#02a7f0" stroke="none" />
    <path d="M 98.3081630832201 202.5  C 98.3081630832201 202.5  95.4627540054506 202.791397315193  95.4627540054506 202.791397315193  C 95.4627540054506 202.791397315193  85.5342372317313 219  85.5342372317313 219  C 85.5342372317313 219  95.4627540054506 235.208602684807  95.4627540054506 235.208602684807  C 95.4627540054506 235.208602684807  98.3081630832202 235.5  98.3081630832202 235.5  C 98.3081630832202 235.5  250.5 235.5  250.5 235.5  C 250.5 235.5  250.5 202.5  250.5 202.5  C 250.5 202.5  98.3081630832201 202.5  98.3081630832201 202.5  Z " stroke-width="1" stroke="#797979" fill="none" />
  </g>
</svg>