<?xml version="1.0" encoding="utf-8"?>
<svg version="1.1" xmlns:xlink="http://www.w3.org/1999/xlink" width="20px" height="20px" xmlns="http://www.w3.org/2000/svg">
  <g transform="matrix(1 0 0 1 -691 -15 )">
    <path d="M 20 10  C 20 4.475  15.525 0  10 0  C 4.475 0  0 4.475  0 10  C 0 15.525  4.475 20  10 20  C 15.525 20  20 15.525  20 10  Z M 6.99999999999999 6  C 6.99999999999999 4.345  8.345 3.00000000000001  10 3.00000000000001  C 11.655 3.00000000000001  13 4.345  13 6  C 13 7.66  11.655 9  10 9  C 8.345 9  6.99999999999999 7.66  6.99999999999999 6  Z M 16 13.98  C 14.705 15.92  12.505 17.2  10 17.2  C 7.49499999999999 17.2  5.29500000000001 15.92  4 13.98  C 4.025 11.995  8.005 10.9  10 10.9  C 11.995 10.9  15.97 11.995  16 13.98  Z " fill-rule="nonzero" fill="#ffffff" stroke="none" transform="matrix(1 0 0 1 691 15 )" />
  </g>
</svg>