<?xml version="1.0" encoding="utf-8"?>
<svg version="1.1" xmlns:xlink="http://www.w3.org/1999/xlink" width="11px" height="28px" xmlns="http://www.w3.org/2000/svg">
  <g transform="matrix(1 0 0 1 -833 -98 )">
    <path d="M 11 5.60000000000001  C 11 4.053  10.4530555555555 2.79999999999999  9.77777777777778 2.79999999999999  L 7.22027777777778 2.79999999999999  C 6.96972222222222 1.17599999999999  6.2975 0  5.5 0  C 4.7025 0  4.03027777777778 1.17599999999999  3.77972222222223 2.79999999999999  L 1.22222222222222 2.79999999999999  C 0.546944444444445 2.79999999999999  0 4.053  0 5.60000000000001  L 0 25.2  C 0 26.747  0.546944444444445 28  1.22222222222222 28  L 9.77777777777778 28  C 10.4530555555555 28  11 26.747  11 25.2  L 11 5.60000000000001  Z M 4.88888888888889 4.20000000000001  C 4.88888888888889 3.42300000000001  5.16388888888889 2.79999999999999  5.5 2.79999999999999  C 5.83611111111111 2.79999999999999  6.11111111111111 3.42300000000001  6.11111111111111 4.20000000000001  C 6.11111111111111 4.97699999999999  5.83611111111111 5.60000000000001  5.5 5.60000000000001  C 5.16388888888889 5.60000000000001  4.88888888888889 4.97699999999999  4.88888888888889 4.20000000000001  Z M 6.72222222222222 19.6  L 6.72222222222222 22.4  L 2.44444444444445 22.4  L 2.44444444444445 19.6  L 6.72222222222222 19.6  Z M 8.55555555555555 14  L 8.55555555555555 16.8  L 2.44444444444445 16.8  L 2.44444444444445 14  L 8.55555555555555 14  Z M 8.55555555555555 8.4  L 8.55555555555555 11.2  L 2.44444444444445 11.2  L 2.44444444444445 8.4  L 8.55555555555555 8.4  Z " fill-rule="nonzero" fill="#ffffff" stroke="none" fill-opacity="0" transform="matrix(1 0 0 1 833 98 )" />
  </g>
</svg>