<?xml version="1.0" encoding="utf-8"?>
<svg version="1.1" xmlns:xlink="http://www.w3.org/1999/xlink" width="20px" height="20px" xmlns="http://www.w3.org/2000/svg">
  <g transform="matrix(1 0 0 1 -448 -15 )">
    <path d="M 20 4  C 20 2.895  19.0055555555555 1.99999999999999  17.7777777777778 1.99999999999999  L 13.1277777777778 1.99999999999999  C 12.6722222222222 0.839999999999996  11.45 0  10 0  C 8.55000000000001 0  7.32777777777778 0.839999999999996  6.87222222222223 1.99999999999999  L 2.22222222222222 1.99999999999999  C 0.994444444444446 1.99999999999999  0 2.895  0 4  L 0 18  C 0 19.105  0.994444444444446 20  2.22222222222222 20  L 17.7777777777778 20  C 19.0055555555555 20  20 19.105  20 18  L 20 4  Z M 8.88888888888889 3.00000000000001  C 8.88888888888889 2.445  9.38888888888889 1.99999999999999  10 1.99999999999999  C 10.6111111111111 1.99999999999999  11.1111111111111 2.445  11.1111111111111 3.00000000000001  C 11.1111111111111 3.55499999999999  10.6111111111111 4  10 4  C 9.38888888888889 4  8.88888888888889 3.55499999999999  8.88888888888889 3.00000000000001  Z M 12.2222222222222 14  L 12.2222222222222 16  L 4.44444444444445 16  L 4.44444444444445 14  L 12.2222222222222 14  Z M 15.5555555555556 10  L 15.5555555555556 12  L 4.44444444444445 12  L 4.44444444444445 10  L 15.5555555555556 10  Z M 15.5555555555556 6  L 15.5555555555556 8  L 4.44444444444445 8  L 4.44444444444445 6  L 15.5555555555556 6  Z " fill-rule="nonzero" fill="#ffffff" stroke="none" transform="matrix(1 0 0 1 448 15 )" />
  </g>
</svg>