<?xml version="1.0" encoding="utf-8"?>
<svg version="1.1" xmlns:xlink="http://www.w3.org/1999/xlink" width="20px" height="20px" xmlns="http://www.w3.org/2000/svg">
  <g transform="matrix(1 0 0 1 -570 -15 )">
    <path d="M 20 13.6611111111111  C 20 10.5166666666667  15.3714285714286 9.43888888888889  11.047619047619 8.77777777777778  C 6.72380952380953 8.12222222222222  5.33333333333333 7.45  5.33333333333333 6.39444444444444  C 5.33333333333333 5.18333333333333  7.24761904761905 4.33333333333333  10.4761904761905 4.33333333333333  C 13.8666666666667 4.33333333333333  15.1238095238095 5.27777777777778  15.2380952380952 6.66666666666667  L 19.4476190476191 6.66666666666667  C 19.3238095238095 4.75  17.3142857142857 3.00555555555556  13.3333333333333 2.43333333333333  L 13.3333333333333 0  L 7.61904761904762 0  L 7.61904761904762 2.4  C 3.92380952380953 2.87222222222222  0.952380952380952 4.26111111111111  0.952380952380952 6.41111111111111  C 0.952380952380952 8.97777777777778  4.6 10.2555555555556  9.9047619047619 11  C 14.6761904761905 11.6666666666667  15.6190476190476 12.6388888888889  15.6190476190476 13.6833333333333  C 15.6190476190476 14.4444444444444  14.6952380952381 15.6666666666667  10.4761904761905 15.6666666666667  C 6.55238095238095 15.6666666666667  5 14.6388888888889  4.8 13.3333333333333  L 0.599999999999999 13.3333333333333  C 0.838095238095237 15.7666666666667  3.95238095238095 17.1277777777778  7.61904761904762 17.5888888888889  L 7.61904761904762 20  L 13.3333333333333 20  L 13.3333333333333 17.6111111111111  C 17.0380952380952 17.1944444444444  20 15.9444444444444  20 13.6611111111111  Z " fill-rule="nonzero" fill="#ffffff" stroke="none" transform="matrix(1 0 0 1 570 15 )" />
  </g>
</svg>