<?xml version="1.0" encoding="utf-8"?>
<svg version="1.1" xmlns:xlink="http://www.w3.org/1999/xlink" width="20px" height="20px" xmlns="http://www.w3.org/2000/svg">
  <g transform="matrix(1 0 0 1 -20 -15 )">
    <path d="M 6.47222222222222 6.20555555555556  L 4.02777777777778 8.66111111111111  C 5.62777777777778 11.8055555555556  8.2 14.3777777777778  11.35 15.9777777777778  L 13.7944444444444 13.5277777777778  C 14.1 13.2222222222222  14.5388888888889 13.1333333333333  14.9222222222222 13.2555555555556  C 16.1666666666667 13.6666666666667  17.5055555555556 13.8888888888889  18.8888888888889 13.8888888888889  C 19.5055555555556 13.8888888888889  20 14.3833333333333  20 15  L 20 18.8888888888889  C 20 19.5055555555556  19.5055555555556 20  18.8888888888889 20  C 8.45555555555556 20  0 11.5444444444444  0 1.11111111111111  C 0 0.494444444444444  0.5 0  1.11111111111111 0  L 5 0  C 5.61666666666667 0  6.11111111111111 0.494444444444444  6.11111111111111 1.11111111111111  C 6.11111111111111 2.49444444444444  6.33333333333333 3.83333333333333  6.74444444444445 5.07777777777778  C 6.86666666666667 5.46111111111111  6.77777777777778 5.9  6.47222222222222 6.20555555555556  Z " fill-rule="nonzero" fill="#000000" stroke="none" transform="matrix(1 0 0 1 20 15 )" />
  </g>
</svg>