<?xml version="1.0" encoding="utf-8"?>
<svg version="1.1" xmlns:xlink="http://www.w3.org/1999/xlink" width="170px" height="170px" xmlns="http://www.w3.org/2000/svg">
  <g transform="matrix(1 0 0 1 -110 -199 )">
    <path d="M 195 200  C 242.04 200  279 236.96  279 284  C 279 331.04  242.04 368  195 368  C 147.96 368  111 331.04  111 284  C 111 236.96  147.96 200  195 200  Z " fill-rule="nonzero" fill="#015478" stroke="none" />
    <path d="M 195 200  C 242.04 200  279 236.96  279 284  C 279 331.04  242.04 368  195 368  C 147.96 368  111 331.04  111 284  C 111 236.96  147.96 200  195 200  Z " stroke-width="2" stroke="#ffffff" fill="none" />
  </g>
</svg>