<?xml version="1.0" encoding="utf-8"?>
<svg version="1.1" xmlns:xlink="http://www.w3.org/1999/xlink" width="300px" height="50px" xmlns="http://www.w3.org/2000/svg">
  <g transform="matrix(1 0 0 1 -25 -251 )">
    <path d="M 26 254  A 2 2 0 0 1 28 252 L 322 252  A 2 2 0 0 1 324 254 L 324 298  A 2 2 0 0 1 322 300 L 28 300  A 2 2 0 0 1 26 298 L 26 254  Z " fill-rule="nonzero" fill="#ffffff" stroke="none" fill-opacity="0.498039215686275" />
    <path d="M 25.5 254  A 2.5 2.5 0 0 1 28 251.5 L 322 251.5  A 2.5 2.5 0 0 1 324.5 254 L 324.5 298  A 2.5 2.5 0 0 1 322 300.5 L 28 300.5  A 2.5 2.5 0 0 1 25.5 298 L 25.5 254  Z " stroke-width="1" stroke="#cccccc" fill="none" stroke-opacity="0.698039215686274" />
  </g>
</svg>