<?xml version="1.0" encoding="utf-8"?>
<svg version="1.1" xmlns:xlink="http://www.w3.org/1999/xlink" width="300px" height="50px" xmlns="http://www.w3.org/2000/svg">
  <g transform="matrix(1 0 0 1 -25 -251 )">
    <path d="M 26.5 254  A 1.5 1.5 0 0 1 28 252.5 L 322 252.5  A 1.5 1.5 0 0 1 323.5 254 L 323.5 298  A 1.5 1.5 0 0 1 322 299.5 L 28 299.5  A 1.5 1.5 0 0 1 26.5 298 L 26.5 254  Z " fill-rule="nonzero" fill="#ffffff" stroke="none" fill-opacity="0" />
    <path d="M 26 254  A 2 2 0 0 1 28 252 L 322 252  A 2 2 0 0 1 324 254 L 324 298  A 2 2 0 0 1 322 300 L 28 300  A 2 2 0 0 1 26 298 L 26 254  Z " stroke-width="2" stroke="#1abc9c" fill="none" />
  </g>
</svg>